<svg width="36" height="36" viewBox="0 0 36 36" fill="none" xmlns="http://www.w3.org/2000/svg">
<g id="command">
<rect width="36" height="36" rx="12" fill="#6C5ECF"/>
<path id="Vector" d="M21 12V24C21 24.5933 21.1759 25.1734 21.5056 25.6667C21.8352 26.1601 22.3038 26.5446 22.852 26.7716C23.4001 26.9987 24.0033 27.0581 24.5853 26.9424C25.1672 26.8266 25.7018 26.5409 26.1213 26.1213C26.5409 25.7018 26.8266 25.1672 26.9424 24.5853C27.0581 24.0033 26.9987 23.4001 26.7716 22.852C26.5446 22.3038 26.1601 21.8352 25.6667 21.5056C25.1734 21.1759 24.5933 21 24 21H12C11.4067 21 10.8266 21.1759 10.3333 21.5056C9.83994 21.8352 9.45543 22.3038 9.22836 22.852C9.0013 23.4001 8.94189 24.0033 9.05765 24.5853C9.1734 25.1672 9.45912 25.7018 9.87868 26.1213C10.2982 26.5409 10.8328 26.8266 11.4147 26.9424C11.9967 27.0581 12.5999 26.9987 13.1481 26.7716C13.6962 26.5446 14.1648 26.1601 14.4944 25.6667C14.8241 25.1734 15 24.5933 15 24V12C15 11.4067 14.8241 10.8266 14.4944 10.3333C14.1648 9.83994 13.6962 9.45543 13.1481 9.22836C12.5999 9.0013 11.9967 8.94189 11.4147 9.05765C10.8328 9.1734 10.2982 9.45912 9.87868 9.87868C9.45912 10.2982 9.1734 10.8328 9.05765 11.4147C8.94189 11.9967 9.0013 12.5999 9.22836 13.1481C9.45543 13.6962 9.83994 14.1648 10.3333 14.4944C10.8266 14.8241 11.4067 15 12 15H24C24.5933 15 25.1734 14.8241 25.6667 14.4944C26.1601 14.1648 26.5446 13.6962 26.7716 13.1481C26.9987 12.5999 27.0581 11.9967 26.9424 11.4147C26.8266 10.8328 26.5409 10.2982 26.1213 9.87868C25.7018 9.45912 25.1672 9.1734 24.5853 9.05765C24.0033 8.94189 23.4001 9.0013 22.852 9.22836C22.3038 9.45543 21.8352 9.83994 21.5056 10.3333C21.1759 10.8266 21 11.4067 21 12Z" stroke="white" stroke-width="2" stroke-linecap="round" stroke-linejoin="round"/>
</g>
</svg>
